<?xml version="1.0" standalone="no"?>
<!DOCTYPE svg PUBLIC "-//W3C//DTD SVG 20010904//EN"
 "http://www.w3.org/TR/2001/REC-SVG-20010904/DTD/svg10.dtd">
<svg version="1.0" xmlns="http://www.w3.org/2000/svg"
 width="512.000000pt" height="512.000000pt" viewBox="0 0 512.000000 512.000000"
 preserveAspectRatio="xMidYMid meet">

<g transform="translate(0.000000,512.000000) scale(0.100000,-0.100000)"
fill="#000000" stroke="none">
<path d="M860 5113 c-55 -20 -81 -82 -55 -136 23 -48 553 -573 587 -581 68
-16 138 54 122 122 -7 28 -483 518 -558 573 -37 28 -64 34 -96 22z"/>
<path d="M1675 5111 c-11 -5 -29 -19 -40 -31 -18 -19 -20 -39 -23 -164 -4
-164 5 -209 48 -231 56 -29 111 -12 139 42 15 30 15 304 -1 338 -20 44 -76 65
-123 46z"/>
<path d="M3327 5110 c-49 -13 -113 -45 -160 -82 -61 -48 -94 -104 -132 -225
-1 -2 -23 6 -51 16 -142 55 -296 24 -410 -81 -48 -44 -101 -140 -110 -200 -7
-43 -6 -43 -42 -24 -52 27 -142 38 -211 27 -156 -25 -277 -134 -317 -286 -26
-98 -11 -161 45 -185 66 -27 125 13 141 98 17 94 63 151 138 172 55 15 73 13
130 -16 37 -19 59 -38 77 -68 24 -40 25 -52 26 -192 0 -176 9 -212 59 -236 43
-20 81 -14 114 19 l25 24 3 317 c3 358 5 368 81 423 70 51 161 48 228 -8 65
-55 63 -43 69 -534 5 -417 6 -448 23 -467 45 -50 124 -44 157 11 19 31 20 54
20 596 0 547 1 566 20 607 12 24 39 54 62 70 35 24 51 29 103 29 50 0 69 -5
103 -28 23 -15 51 -45 62 -67 20 -38 20 -56 20 -905 0 -930 -1 -918 50 -945
39 -21 90 -15 119 14 l26 26 5 753 5 753 28 43 c49 73 125 103 208 81 55 -15
113 -72 128 -125 7 -28 11 -277 11 -803 0 -823 -2 -789 53 -840 35 -33 112
-40 155 -13 50 32 68 72 108 240 20 86 43 172 51 191 53 129 225 161 320 58
27 -28 53 -89 53 -121 0 -13 -38 -217 -85 -454 -93 -471 -123 -577 -206 -728
-76 -138 -137 -213 -359 -439 l-205 -208 0 -478 c0 -468 0 -479 21 -506 38
-52 103 -56 150 -9 l24 24 0 443 0 443 156 155 c176 175 260 272 329 378 59
93 136 253 170 357 24 73 184 851 200 971 21 158 -75 327 -225 398 -59 28 -74
31 -165 31 -93 0 -105 -2 -166 -33 -60 -29 -121 -81 -163 -137 -14 -18 -15 37
-16 505 0 289 -4 551 -10 583 -39 241 -293 384 -523 297 -35 -13 -49 -15 -51
-7 -51 180 -185 293 -359 302 -39 3 -89 0 -110 -5z"/>
<path d="M860 4287 c-21 -7 -42 -25 -53 -45 -17 -29 -18 -39 -8 -72 19 -65 34
-70 217 -70 161 0 161 0 188 26 55 55 23 152 -55 168 -53 10 -252 6 -289 -7z"/>
<path d="M1479 4027 c-31 -13 -71 -34 -88 -46 -49 -35 -107 -114 -126 -172
-15 -45 -20 -50 -39 -44 -105 34 -132 37 -198 27 -137 -21 -235 -92 -292 -212
l-31 -65 -3 -528 -3 -528 -45 50 c-148 165 -424 159 -564 -10 -63 -77 -97
-192 -85 -283 15 -118 166 -848 190 -921 40 -124 129 -294 210 -402 40 -54
148 -172 239 -263 l166 -165 0 -201 c0 -199 0 -201 24 -227 45 -49 111 -46
150 7 19 25 21 44 24 224 5 297 24 253 -207 487 -256 260 -332 368 -409 587
-43 120 -196 896 -187 947 8 47 57 109 101 127 45 19 108 18 151 -2 62 -30 81
-68 128 -258 24 -97 48 -184 54 -193 17 -32 45 -52 90 -62 56 -12 112 8 144
53 l22 31 5 750 c6 833 0 774 72 828 70 53 162 44 222 -23 20 -22 37 -41 38
-43 1 -1 4 -188 8 -414 l5 -413 26 -26 c20 -20 38 -27 69 -28 35 -1 46 4 71
32 l29 32 0 518 c0 483 2 520 19 558 27 59 72 87 146 92 50 3 65 0 94 -20 19
-12 44 -36 55 -51 21 -28 21 -40 26 -561 6 -592 3 -572 73 -595 40 -14 75 -3
106 30 21 22 21 31 21 403 0 231 4 396 10 418 15 52 53 94 105 114 79 30 168
-3 205 -77 19 -36 20 -60 20 -419 0 -429 1 -439 65 -466 29 -12 44 -13 70 -4
62 21 65 33 65 290 0 131 5 249 11 273 44 175 288 168 329 -9 5 -21 10 -151
10 -287 l0 -249 29 -29 c40 -40 89 -40 133 0 l33 29 3 235 c4 262 -5 351 -40
429 -32 68 -108 144 -178 177 -76 35 -202 41 -277 13 l-51 -19 -12 45 c-27
108 -89 185 -191 236 -109 55 -174 57 -326 10 -16 -4 -23 -2 -23 7 0 31 -52
122 -96 169 -68 73 -137 103 -249 107 -77 3 -98 0 -146 -20z"/>
<path d="M2896 2349 c-17 -19 -26 -43 -26 -64 0 -21 9 -45 26 -64 35 -41 98
-44 137 -6 64 65 23 165 -68 165 -36 0 -48 -5 -69 -31z"/>
<path d="M2913 2011 c-18 -11 -35 -31 -37 -43 -3 -13 -7 -122 -10 -243 -3
-121 -10 -248 -16 -282 -28 -166 -102 -353 -198 -497 -26 -39 -118 -144 -204
-233 l-158 -162 0 -246 0 -246 24 -24 c47 -47 112 -43 150 9 19 25 21 44 24
223 l4 196 124 131 c68 72 151 169 184 215 110 154 198 354 235 535 31 153 47
529 25 607 -19 70 -87 97 -147 60z"/>
<path d="M4118 184 c-35 -18 -48 -43 -48 -89 0 -65 69 -110 131 -85 39 16 59
46 59 88 0 44 -14 68 -50 87 -36 19 -57 18 -92 -1z"/>
</g>
</svg>
