<?xml version="1.0" standalone="no"?>
<!DOCTYPE svg PUBLIC "-//W3C//DTD SVG 20010904//EN"
 "http://www.w3.org/TR/2001/REC-SVG-20010904/DTD/svg10.dtd">
<svg version="1.0" xmlns="http://www.w3.org/2000/svg"
 width="128.000000pt" height="128.000000pt" viewBox="0 0 128.000000 128.000000"
 preserveAspectRatio="xMidYMid meet">

<g transform="translate(0.000000,128.000000) scale(0.100000,-0.100000)"
fill="#000000" stroke="none">
<path d="M339 1232 c-104 -35 -185 -106 -234 -207 -95 -193 -16 -414 183 -508
60 -29 77 -32 157 -32 72 0 100 5 139 23 l50 23 88 -88 c54 -54 88 -96 88
-108 0 -14 51 -74 139 -166 l139 -144 36 19 c42 22 86 76 86 105 0 25 -255
301 -279 301 -9 0 -54 38 -100 84 l-83 84 36 74 c59 119 59 222 -1 344 -33 69
-116 147 -190 181 -75 35 -176 40 -254 15z m173 -128 c97 -32 159 -126 160
-241 1 -82 -13 -113 -75 -170 -74 -68 -169 -82 -263 -37 -86 41 -134 119 -134
221 0 72 27 130 85 181 70 61 141 76 227 46z"/>
</g>
</svg>
